<svg width="75" height="65" viewBox="0 0 75 65" fill="none" xmlns="http://www.w3.org/2000/svg">
<rect width="75" height="65" rx="10" fill="#1758DC"/>
<path d="M8.60257 45.9383L7.23422 48.63C11.6132 51.914 15.3529 48.3562 15.3529 48.3562L14.4418 42.062L6.09456 43.7391L14.0767 37.2258V36.4514C14.0767 36.4514 7.8272 39.005 5.00001 44.3876L12.0239 44.0677C12.0239 44.0677 11.0548 45.4185 11.6845 46.9649L8.60257 45.9383Z" fill="#00B5FF"/>
<path d="M12.9282 48.3569L12.5893 48.018C10.7425 46.1713 12.1354 44.1785 12.1497 44.1586L11.8978 43.978C11.883 43.9988 10.503 45.9729 12.0694 47.9045L7.89254 47.2311L7.84291 47.5371L12.9282 48.3569Z" fill="#001A62"/>
<path d="M12.0151 47.3653L8.32312 46.4161L8.24595 46.7162L11.9379 47.6655L12.0151 47.3653Z" fill="#001A62"/>
<path d="M12.288 48.761L7.51434 47.9727L7.46386 48.2785L12.2375 49.0667L12.288 48.761Z" fill="#001A62"/>
<path d="M44.317 13.1888C44.317 13.1888 25.4335 8.12615 9.74338 19.3924L14.8516 48.6752C14.8516 48.6752 38.7067 51.9595 49.4253 45.1174L44.317 13.1888Z" fill="#00B5FF"/>
<path d="M31.1831 23.2376C31.9841 26.2916 34.1785 28.4831 36.7602 28.4831C39.8354 28.4831 42.3634 25.3709 42.6371 21.3999L37.8699 22.1654C37.7895 24.0769 36.3671 25.5998 34.6249 25.5998C33.2037 25.5998 31.9969 24.5888 31.5538 23.1782L31.1831 23.2376Z" fill="white"/>
<path d="M31.5536 23.1781C31.9968 24.5886 33.2035 25.5997 34.6247 25.5997C36.3669 25.5997 37.7894 24.0768 37.8697 22.1653L31.5536 23.1781Z" fill="#001A62"/>
<path d="M16.5315 25.7199C17.3325 28.7739 19.5273 30.9652 22.1085 30.9652C25.1837 30.9652 27.7121 27.8537 27.986 23.8827L23.2184 24.6478C23.1382 26.5592 21.7156 28.0822 19.9732 28.0822C18.5521 28.0822 17.3454 27.0708 16.9022 25.661L16.5315 25.7199Z" fill="white"/>
<path d="M16.9021 25.6608C17.3454 27.0708 18.552 28.0821 19.973 28.0821C21.7155 28.0821 23.1381 26.559 23.2183 24.6476L16.9021 25.6608ZM35.1832 39.3698C35.1832 39.3698 32.0131 33.7371 29.0031 40.647L30.987 40.4647L28.8434 48.6062L34.0659 52.7797L37.2134 48.3101L33.4679 40.0778L35.1832 39.3698Z" fill="#001A62"/>
<path d="M32.7116 31.3707L27.4434 30.4585L27.3906 30.764L32.6587 31.6762L32.7116 31.3707Z" fill="#00B5FF"/>
<path d="M32.041 27.4474L31.7344 27.4019L30.5947 35.0705L30.9014 35.1161L32.041 27.4474Z" fill="#00B5FF"/>
<path d="M30.9008 27.442L30.5933 27.4032L29.5664 35.5404L29.8738 35.5792L30.9008 27.442Z" fill="#00B5FF"/>
<path d="M29.8745 27.2383L29.5678 27.1917L28.4731 34.398L28.7797 34.4446L29.8745 27.2383Z" fill="#00B5FF"/>
<path d="M36.708 21.7016C38.8237 21.7016 40.8334 21.0594 42.0969 20.4203L41.1108 18.4657C40.8672 18.5877 35.1097 21.4065 32.0579 17.3502L30.3084 18.6662C32.0321 20.9578 34.4312 21.7016 36.708 21.7016ZM17.8421 23.6069C21.6416 17.2387 27.0703 20.1429 27.2996 20.2693L28.3589 18.3534C28.2843 18.312 20.8343 14.3186 15.962 22.4851L17.8421 23.6069Z" fill="#001A62"/>
<path d="M51.6914 25.8862L54.8534 11L71.0002 18.0035L63.8847 35.0927L57.4766 30.9177L51.4056 27.8579L51.6914 25.8862Z" fill="#FFCF0B"/>
<path d="M67.7386 19.2949L57.7823 14.5577L57.1944 15.7933L67.1507 20.5305L67.7386 19.2949Z" fill="#001A62"/>
<path d="M64.9998 25.5457L56.1132 20.9332L55.4828 22.1477L64.3694 26.7602L64.9998 25.5457Z" fill="#001A62"/>
<path d="M63.0632 29.3781L55.5571 25.543L54.9346 26.7614L62.4407 30.5965L63.0632 29.3781Z" fill="#001A62"/>
<path d="M66.4783 21.2268L59.9652 18.3742L59.6907 19.0009L66.2038 21.8534L66.4783 21.2268Z" fill="#001A62"/>
<path d="M65.5461 22.948L57.6323 19.2804L57.3446 19.9012L65.2584 23.5688L65.5461 22.948Z" fill="#001A62"/>
<path d="M63.6317 27.5562L57.6489 24.3854L57.3285 24.9898L63.3113 28.1606L63.6317 27.5562Z" fill="#001A62"/>
<path d="M61.9357 31.2305L56.9122 28.2431L56.5625 28.8312L61.5859 31.8186L61.9357 31.2305Z" fill="#001A62"/>
<path d="M52.2989 35.9519L51.9347 28.6971C51.9347 28.6971 55.5939 32.1807 57.4766 30.9177L51.9676 27.3301C53.1405 27.0536 54.8836 26.5048 54.8533 25.6868C54.8273 24.9791 53.1307 25.4003 51.6914 25.8863C51.0186 26.1158 50.3541 26.3688 49.699 26.6447L50.7938 33.8967L46.6883 31.3161L46.4613 32.0727L52.2989 35.9519Z" fill="#00B5FF"/>
</svg>
