<svg width="75" height="65" viewBox="0 0 75 65" fill="none" xmlns="http://www.w3.org/2000/svg">
<rect width="75" height="65" rx="10" fill="#1758DC"/>
<g clip-path="url(#clip0_5_222)">
<path d="M26.9892 25.1932C26.9892 25.1932 26.8987 22.0742 27.1196 19.0911C27.3408 16.1078 29.2719 13.2216 34.0805 13.2783C34.0805 13.2783 42.377 13.0543 55.5667 13.3995C55.5667 13.3995 62.217 13.4244 62.315 20.1227C62.315 20.1227 62.3392 24.8952 62.3747 29.4207C62.3747 29.4207 62.315 33.7813 57.2585 33.6529C57.2585 33.6529 58.4293 38.3884 58.3232 41.3583C58.3232 41.3583 54.7897 37.9839 48.9338 33.5092C48.9338 33.5092 48.173 33.5424 45.6206 33.4518L26.9892 25.1932Z" fill="#FFBE32"/>
<path d="M34.9657 18.217C34.9657 18.217 46.1738 18.217 54.0585 18.3231C54.0585 18.3231 55.0851 18.3091 55.0131 19.2071C55.0131 19.2071 54.9678 20.2479 53.4064 20.2253C51.8449 20.2026 42.7721 20.3927 35.1377 20.3474C35.1377 20.3474 33.7103 20.3774 33.6994 19.2184C33.6994 19.2184 33.6731 18.2131 34.9657 18.217ZM38.1311 24.6526C38.1311 24.6526 37.7918 22.9328 39.5794 22.9553C39.5794 22.9553 45.6092 23.0345 52.3413 23.063C52.3413 23.063 53.9209 23.021 53.8447 24.3206C53.8447 24.3206 53.8811 25.3706 52.4038 25.4721C52.4038 25.4721 44.5551 25.6079 39.6041 25.3953C39.6041 25.3953 38.107 25.434 38.1311 24.6526Z" fill="#3C69C6"/>
<path d="M13.7595 28.9055C13.7595 28.9055 13.4169 24.1714 19.9026 24.1324C19.9026 24.1324 30.3803 23.8957 41.8078 24.076C41.8078 24.076 47.686 23.9452 47.6012 29.5456C47.6012 29.5456 47.5579 32.5624 47.5137 36.982C47.5137 36.982 47.8731 42.8141 41.1111 42.9909C41.1111 42.9909 36.1909 43.1287 29.0842 43.1287C29.0842 43.1287 26.6567 43.0204 24.3601 45.8969C24.3601 45.8969 21.5417 49.4449 18.0345 50.8026C18.0345 50.8026 18.8043 47.0379 18.9202 43.2363C18.9202 43.2363 14.1309 43.3885 13.9045 38.6366C13.9045 38.6366 13.7953 31.3385 13.7595 28.9055Z" fill="#4BCBEC"/>
<path d="M20.5322 32.2222C20.5322 32.2222 22.2929 32.2629 22.2292 33.913C22.2358 34.9697 21.1539 35.4967 20.2425 35.5531C20.2425 35.5531 18.7351 35.6956 18.6192 33.8998C18.6192 33.8998 18.5048 32.2222 20.5322 32.2222ZM27.68 29.2206C27.68 29.2206 31.5554 28.9366 31.3931 33.3451C31.3931 33.3451 31.4279 37.1625 27.4482 37.1857C27.4482 37.1857 23.8047 37.2436 23.6887 33.4203C23.6887 33.4203 23.4919 29.1974 27.68 29.2206ZM35.3555 31.0047C35.3555 31.0047 37.2869 30.8964 37.1944 33.0021C37.1944 33.0021 37.3018 34.8744 35.3785 34.9439C35.3785 34.9439 33.664 35.0828 33.5712 33.1364C33.5712 33.1364 33.4091 31.0974 35.3555 31.0047ZM41.2552 31.3254C41.2552 31.3254 42.9495 31.2659 42.9385 33.0937C42.9385 33.0937 42.9978 34.7731 41.1069 34.7917C41.1069 34.7917 39.4387 34.8658 39.4015 33.1049C39.4015 33.1049 39.3534 31.2882 41.2552 31.3254Z" fill="#FF9227"/>
<path d="M13.5418 18.1181C13.5418 18.1181 15.6225 18.6672 20.0037 19.0688C20.0895 19.0752 20.1743 19.0476 20.24 18.992C20.3056 18.9364 20.3468 18.8572 20.3547 18.7715C20.3625 18.6859 20.3364 18.6005 20.282 18.5339C20.2276 18.4673 20.1491 18.4247 20.0636 18.4154C15.7553 18.0205 13.7089 17.4835 13.7089 17.4835C13.625 17.4621 13.536 17.4747 13.4614 17.5186C13.3867 17.5625 13.3325 17.6341 13.3104 17.7179C13.2884 17.8016 13.3003 17.8907 13.3437 17.9657C13.387 18.0406 13.4582 18.0954 13.5418 18.1181ZM16.7966 11.009C16.7966 11.009 19.4822 13.6945 21.7685 15.7633C21.8336 15.8184 21.9175 15.8461 22.0026 15.8405C22.0877 15.8349 22.1672 15.7964 22.2244 15.7331C22.2816 15.6699 22.312 15.5869 22.3091 15.5017C22.3062 15.4165 22.2703 15.3357 22.2089 15.2765C19.9335 13.2179 17.2605 10.545 17.2605 10.545C17.1326 10.417 16.9245 10.417 16.7966 10.545C16.6686 10.673 16.6686 10.881 16.7966 11.009ZM22.7315 8.75342C22.7315 8.75342 24.2728 11.0116 25.3838 13.413C25.4019 13.4521 25.4276 13.4873 25.4592 13.5165C25.4909 13.5457 25.5281 13.5684 25.5685 13.5832C25.609 13.5981 25.6519 13.6049 25.695 13.6031C25.7381 13.6013 25.7804 13.5911 25.8195 13.573C25.8586 13.5549 25.8937 13.5293 25.923 13.4976C25.9522 13.4659 25.9748 13.4288 25.9897 13.3883C26.0046 13.3479 26.0113 13.3049 26.0096 13.2619C26.0078 13.2188 25.9976 13.1765 25.9795 13.1374C24.8457 10.6874 23.2735 8.38351 23.2735 8.38351C23.2244 8.31182 23.1488 8.26255 23.0634 8.24651C22.978 8.23047 22.8897 8.24898 22.8179 8.29797C22.7461 8.34696 22.6967 8.42243 22.6805 8.50782C22.6643 8.5932 22.6826 8.68153 22.7315 8.75342ZM44.6467 47.8034C44.6467 47.8034 44.8716 51.4488 44.6017 55.4091C44.599 55.494 44.6294 55.5767 44.6865 55.6397C44.7435 55.7026 44.8227 55.7411 44.9075 55.7469C44.9923 55.7526 45.076 55.7253 45.1411 55.6706C45.2061 55.616 45.2475 55.5382 45.2564 55.4537C45.5294 51.449 45.3019 47.7629 45.3019 47.7629C45.2964 47.676 45.2567 47.5949 45.1915 47.5373C45.1263 47.4797 45.0409 47.4503 44.9541 47.4555C44.8672 47.461 44.7861 47.5007 44.7285 47.5659C44.6709 47.6311 44.6415 47.7165 44.6467 47.8034ZM49.4175 46.9146C49.4175 46.9146 50.6521 50.3426 52.3432 53.0853C52.3889 53.1594 52.4622 53.2123 52.5469 53.2324C52.6316 53.2524 52.7208 53.2381 52.7948 53.1924C52.8689 53.1467 52.9218 53.0734 52.9419 52.9887C52.962 52.9041 52.9476 52.8149 52.9019 52.7408C51.2442 50.0525 50.035 46.6923 50.035 46.6923C50.0204 46.6518 49.998 46.6145 49.969 46.5826C49.94 46.5508 49.905 46.5249 49.866 46.5065C49.827 46.4882 49.7848 46.4777 49.7417 46.4757C49.6987 46.4736 49.6556 46.4801 49.6151 46.4947C49.5745 46.5093 49.5373 46.5317 49.5054 46.5607C49.4735 46.5897 49.4477 46.6247 49.4293 46.6637C49.411 46.7027 49.4005 46.7449 49.3984 46.788C49.3964 46.831 49.4029 46.874 49.4175 46.9146ZM52.2415 42.8126C52.2415 42.8126 54.4616 45.3083 57.2358 46.6029C57.2748 46.6211 57.3171 46.6314 57.3601 46.6333C57.4032 46.6352 57.4461 46.6286 57.4866 46.6139C57.5271 46.5991 57.5643 46.5766 57.5961 46.5475C57.6278 46.5184 57.6536 46.4833 57.6718 46.4443C57.69 46.4052 57.7003 46.363 57.7022 46.3199C57.7041 46.2769 57.6975 46.2339 57.6828 46.1934C57.668 46.153 57.6455 46.1158 57.6164 46.084C57.5873 46.0522 57.5522 46.0265 57.5132 46.0083C54.8567 44.7684 52.7322 42.3766 52.7322 42.3766C52.6744 42.3115 52.5931 42.2721 52.5062 42.267C52.4193 42.2619 52.3339 42.2915 52.2689 42.3493C52.2038 42.4071 52.1644 42.4884 52.1592 42.5753C52.1541 42.6621 52.1837 42.7475 52.2415 42.8126Z" fill="white"/>
</g>
<defs>
<clipPath id="clip0_5_222">
<rect width="56" height="56" fill="white" transform="translate(10 4)"/>
</clipPath>
</defs>
</svg>
