<svg width="32" height="32" viewBox="0 0 32 32" fill="none" xmlns="http://www.w3.org/2000/svg">
<circle cx="16" cy="16" r="16" fill="#114CC2"/>
<path d="M24.1852 15.5368C24.1195 15.5483 24.054 15.5539 23.9895 15.5539C23.4548 15.5539 22.9812 15.1705 22.8854 14.6258L22.5904 12.948L16.994 20.1355C16.7734 20.4189 16.4426 20.5684 16.1077 20.5684C15.8822 20.5684 15.655 20.5007 15.4579 20.3605L11.6384 17.6434L8.47096 22.3081C8.25389 22.6278 7.90076 22.8001 7.54142 22.8001C7.32436 22.8001 7.10509 22.7373 6.91196 22.6061C6.73302 22.4846 6.60016 22.3205 6.51796 22.1365C6.36462 21.7933 6.38716 21.381 6.61389 21.0471L10.4256 15.4335C10.5096 15.3098 10.6174 15.2042 10.7427 15.1227C10.868 15.0413 11.0084 14.9858 11.1555 14.9593C11.4526 14.9059 11.7588 14.9744 12.0048 15.1493L15.8832 17.9084L20.7536 11.6532C19.8798 11.7141 19.1905 11.7659 18.9678 11.7901C18.7234 11.8458 18.459 11.8203 18.2174 11.6995C17.764 11.4728 17.5178 10.9678 17.6183 10.4715C17.6805 10.1646 17.87 9.89553 18.1381 9.7332C18.2059 9.69215 18.2778 9.65832 18.3527 9.63227C18.4014 9.61533 18.4507 9.6018 18.5032 9.5908C18.5388 9.5834 18.5759 9.57727 18.62 9.57127C18.6672 9.56493 18.7256 9.5584 18.8039 9.55087C18.9288 9.53873 19.1013 9.52407 19.3313 9.50607C19.705 9.47687 20.2242 9.4394 20.8744 9.39487C21.978 9.31913 23.0949 9.2478 23.1061 9.247C23.5468 9.21893 23.9632 9.45193 24.1697 9.8424C24.202 9.9036 24.2283 9.96687 24.2486 10.0314C24.3408 10.1623 24.4066 10.315 24.4361 10.4832L25.0963 14.2369C25.0967 14.2391 25.0971 14.2414 25.0974 14.2435C25.2007 14.8517 24.7936 15.4298 24.1852 15.5368Z" fill="#9FE5FE"/>
<path opacity="0.11" d="M24.1852 15.5368C24.1195 15.5483 24.054 15.5539 23.9895 15.5539C23.4548 15.5539 22.9812 15.1705 22.8854 14.6258L22.5903 12.948L16.994 20.1355C16.7733 20.4189 16.4425 20.5684 16.1077 20.5684C15.8822 20.5684 15.6549 20.5007 15.4579 20.3605L11.6383 17.6434L8.47094 22.3081C8.25388 22.6278 7.90074 22.8001 7.54141 22.8001C7.32434 22.8001 7.10508 22.7373 6.91194 22.6061C6.73301 22.4846 6.60014 22.3205 6.51794 22.1365L6.51801 22.1364C6.51801 22.1364 7.69048 22.8234 8.23608 21.6777C8.78168 20.5319 11.0809 16.4867 11.7279 16.7907C12.3748 17.0947 15.4535 20.0799 16.2563 19.5577C17.0591 19.0355 22.4838 11.9661 22.9359 12.161C23.3871 12.3555 22.8523 15.8496 25.0973 14.2437C25.2007 14.8517 24.7935 15.4298 24.1852 15.5368Z" fill="#1AC2E8"/>
<path opacity="0.11" d="M8.42692 20.7034C8.40338 20.7034 8.37958 20.6969 8.35818 20.6834C8.29818 20.6454 8.28038 20.5659 8.31838 20.5059L9.90838 17.9962C9.94638 17.9362 10.0258 17.9184 10.0858 17.9564C10.1458 17.9944 10.1636 18.0739 10.1256 18.1339L8.53565 20.6436C8.51125 20.6822 8.46952 20.7034 8.42692 20.7034ZM11.0926 17.0014C11.069 17.0014 11.0451 16.9949 11.0237 16.9813C10.9637 16.9433 10.946 16.8637 10.984 16.8037C10.9927 16.79 11.2005 16.4679 11.566 16.4209C11.8153 16.3889 12.0684 16.4908 12.3184 16.7239C12.3703 16.7723 12.3732 16.8537 12.3247 16.9056C12.2762 16.9575 12.1949 16.9604 12.143 16.9119C11.9524 16.7342 11.77 16.6547 11.6007 16.6758C11.3558 16.7062 11.2026 16.9394 11.2011 16.9417C11.1766 16.9804 11.135 17.0014 11.0926 17.0014ZM13.8673 18.1157C13.8408 18.1157 13.8142 18.1075 13.7913 18.0907L12.5286 17.1632C12.4714 17.1211 12.4591 17.0407 12.5011 16.9834C12.5432 16.9261 12.6236 16.9139 12.6809 16.9559L13.9436 17.8834C14.0008 17.9255 14.0131 18.0059 13.9711 18.0632C13.9458 18.0975 13.9068 18.1157 13.8673 18.1157ZM16.0078 19.4265C15.9293 19.4265 15.8498 19.4116 15.7734 19.3806L15.417 19.2365C15.3512 19.2099 15.3194 19.1349 15.346 19.069C15.3726 19.0031 15.4476 18.9714 15.5135 18.998L15.8698 19.1421C16.0189 19.2024 16.1873 19.1591 16.2888 19.0343L17.961 16.9784C18.0058 16.9233 18.0868 16.9149 18.1419 16.9598C18.197 17.0046 18.2054 17.0856 18.1605 17.1407L16.4883 19.1967C16.3672 19.3456 16.1902 19.4265 16.0078 19.4265ZM18.3568 16.8375C18.3283 16.8375 18.2997 16.8281 18.2759 16.8088C18.2207 16.7641 18.2122 16.6831 18.2569 16.6279L18.7557 16.0122C18.8004 15.957 18.8814 15.9485 18.9366 15.9932C18.9918 16.0379 19.0002 16.1189 18.9556 16.1741L18.4568 16.7898C18.4314 16.8211 18.3942 16.8375 18.3568 16.8375ZM20.0481 14.9513C20.02 14.9513 19.9917 14.9421 19.968 14.9232C19.9124 14.8789 19.9034 14.798 19.9476 14.7425L21.0856 13.3161C21.1298 13.2606 21.2108 13.2515 21.2663 13.2958C21.3218 13.3401 21.3309 13.421 21.2866 13.4765L20.1487 14.9029C20.1367 14.918 20.1214 14.9302 20.104 14.9386C20.0865 14.947 20.0674 14.9513 20.0481 14.9513ZM21.8175 12.8858C21.7818 12.8858 21.7463 12.871 21.7208 12.8421C21.674 12.7887 21.6792 12.7075 21.7325 12.6606L22.8058 11.7172C22.8718 11.6592 22.9618 11.6381 23.0467 11.6607C23.1316 11.6833 23.1992 11.7465 23.2275 11.8296L23.3889 12.3026C23.4118 12.3698 23.3759 12.4429 23.3087 12.4659C23.2414 12.4888 23.1684 12.4529 23.1454 12.3857L22.984 11.9127C22.9836 11.9114 22.9832 11.91 22.9804 11.9093C22.9778 11.9086 22.9766 11.9096 22.9756 11.9105L21.9023 12.8539C21.878 12.8753 21.8476 12.8858 21.8175 12.8858ZM24.2962 14.6083C24.2922 14.6083 24.2882 14.6081 24.2842 14.6078C23.9866 14.5803 23.7568 14.465 23.6011 14.2651C23.319 13.9029 23.394 13.3978 23.3973 13.3765C23.4082 13.3063 23.4741 13.2583 23.5442 13.2693C23.6143 13.2802 23.6623 13.3459 23.6515 13.4159C23.6506 13.4221 23.5915 13.8355 23.8049 14.1081C23.9152 14.2491 24.0845 14.3311 24.3078 14.3517C24.3786 14.3583 24.4306 14.4209 24.424 14.4916C24.4179 14.5582 24.3618 14.6083 24.2962 14.6083Z" fill="#1AC2E8"/>
<path d="M7.9044 19.7911C7.86927 19.7911 7.83387 19.7803 7.80334 19.758C7.72687 19.7021 7.7102 19.5948 7.76607 19.5184L8.39794 18.6539C8.4538 18.5775 8.56107 18.5608 8.63754 18.6167C8.714 18.6725 8.73067 18.7799 8.6748 18.8563L8.04294 19.7207C8.0094 19.7667 7.95727 19.7911 7.9044 19.7911ZM16.9811 17.2349C16.9422 17.2349 16.9031 17.2218 16.8709 17.1948C16.7984 17.1339 16.7889 17.0258 16.8497 16.9533L18.2293 15.3087C18.2902 15.2361 18.3983 15.2267 18.4709 15.2875C18.5434 15.3483 18.5529 15.4565 18.4921 15.5291L17.1125 17.1737C17.0786 17.2141 17.03 17.2349 16.9811 17.2349ZM10.6131 15.8869C10.5816 15.8869 10.5497 15.8783 10.5211 15.86C10.4411 15.8092 10.4178 15.7029 10.4686 15.623C10.4802 15.6048 10.7582 15.1757 11.2435 15.1091C11.5665 15.0647 11.8939 15.1889 12.2165 15.4783C12.287 15.5415 12.2929 15.6499 12.2297 15.7204C12.1664 15.7909 12.058 15.7968 11.9875 15.7335C11.7443 15.5154 11.5105 15.4195 11.2927 15.4485C10.9657 15.492 10.7597 15.8045 10.7576 15.8077C10.7249 15.859 10.6697 15.8869 10.6131 15.8869ZM18.7019 10.1058C18.6155 10.1058 18.5413 10.0407 18.5317 9.95288C18.5214 9.85875 18.5895 9.77408 18.6836 9.76388L20.378 9.57955C20.4721 9.56928 20.5568 9.63735 20.567 9.73148C20.5773 9.82561 20.5092 9.91028 20.4151 9.92048L18.7207 10.1048C18.7144 10.1055 18.7081 10.1058 18.7019 10.1058Z" fill="white"/>
<path d="M8.99413 21.6231C8.97786 21.6231 8.96139 21.6185 8.94679 21.6088C8.90733 21.5826 8.89659 21.5294 8.92273 21.4899L11.5862 17.4759C11.5992 17.4563 11.6197 17.4429 11.6429 17.4388C11.6661 17.4347 11.6899 17.4404 11.7089 17.4545L15.5197 20.2911C15.5263 20.2959 15.7248 20.4364 15.9936 20.4793C16.3486 20.5361 16.6583 20.402 16.914 20.0809C17.5762 19.2493 22.4293 12.9591 22.4783 12.8957C22.5072 12.8582 22.561 12.8512 22.5985 12.8801C22.636 12.9091 22.6429 12.9629 22.6141 13.0004C22.5651 13.0639 17.7113 19.355 17.0482 20.1877C16.676 20.6551 16.2509 20.6957 15.9597 20.6475C15.6489 20.5961 15.4277 20.4363 15.4185 20.4295L11.6791 17.646L9.06566 21.5847C9.05786 21.5965 9.04724 21.6062 9.03475 21.6129C9.02227 21.6197 9.0083 21.6232 8.99413 21.6231ZM18.6061 11.8661C18.5611 11.8661 18.5233 11.831 18.5206 11.7854C18.5178 11.7381 18.5539 11.6975 18.6012 11.6948L20.7485 11.5687C20.7955 11.5659 20.8363 11.602 20.8391 11.6493C20.8419 11.6965 20.8057 11.7371 20.7585 11.7399L18.6112 11.8659C18.6095 11.8661 18.6079 11.8661 18.6061 11.8661Z" fill="black"/>
</svg>
