<svg width="134" height="116" viewBox="0 0 134 116" fill="none" xmlns="http://www.w3.org/2000/svg">
<rect width="134" height="115.914" rx="10" fill="#1758DC"/>
<path d="M94.2811 42.4193C94.2811 42.4193 91.2251 39.3285 81.5311 41.2417C71.8364 43.1549 32.9043 48.2008 31.4156 52.8108C29.927 57.4215 28.9297 86.3947 30.3963 90.1823C31.8629 93.9693 33.8702 95.8758 40.364 96.7042C46.8591 97.5333 78.9384 73.3123 80.0845 72.5593C81.2307 71.805 100.311 51.5886 94.2811 42.4193Z" fill="#171D8F"/>
<path d="M88.3907 44.4185C88.3907 44.4185 85.5069 54.3328 79.927 53.6659C79.3278 53.5897 78.7285 53.5134 78.1293 53.437C72.5173 52.722 68.5475 47.5927 69.2631 41.9813C69.9787 36.37 75.1067 32.4002 80.7187 33.1151L82.9209 33.3955C88.5042 34.1364 89.1036 38.8246 88.3907 44.4185Z" fill="#FFAC17"/>
<path d="M91.8139 44.8551C91.4703 47.5499 90.0702 49.9979 87.9218 51.6605C85.7733 53.3231 83.0524 54.0642 80.3576 53.7207C77.6629 53.3772 75.215 51.9775 73.5523 49.8293C71.8895 47.6811 71.1482 44.9604 71.4913 42.2657C71.6613 40.9313 72.0924 39.6433 72.7602 38.4755C73.4279 37.3077 74.3191 36.2828 75.383 35.4595C76.4468 34.6361 77.6624 34.0303 78.9603 33.6767C80.2583 33.3232 81.6132 33.2287 82.9476 33.3988C84.282 33.5689 85.5699 34.0001 86.7376 34.6678C87.9053 35.3356 88.9301 36.2268 89.7534 37.2907C90.5768 38.3545 91.1825 39.57 91.536 40.868C91.8895 42.1659 91.9839 43.5207 91.8139 44.8551Z" fill="#FFC517"/>
<path d="M82.3515 36.7452C82.2524 36.7325 82.1517 36.7396 82.0553 36.7658C81.9588 36.7921 81.8685 36.8371 81.7895 36.8983C81.7104 36.9595 81.6442 37.0356 81.5946 37.1224C81.545 37.2092 81.513 37.3049 81.5004 37.404L81.4076 38.1297C81.1159 38.2138 80.8208 38.3486 80.5331 38.5369C79.8202 39.0048 79.3703 39.5929 79.1994 40.213C79.0285 40.8332 79.138 41.4266 79.3249 41.8966C79.5612 42.4737 79.9202 42.9926 80.3769 43.4172C80.3968 43.4371 80.4177 43.4558 80.4397 43.4733C80.4397 43.4733 81.5258 44.3478 82.2313 45.309C82.5838 45.7903 82.8061 46.2863 82.8255 46.5707C82.8435 46.8544 82.8455 46.9679 82.3395 47.2249C81.1846 47.811 80.696 47.5286 80.2661 47.1554C79.8369 46.7823 79.6219 46.2476 79.6219 46.2476C79.5872 46.1539 79.5343 46.0679 79.4662 45.9946C79.3982 45.9214 79.3165 45.8622 79.2256 45.8205C79.1347 45.7789 79.0365 45.7555 78.9366 45.7518C78.8367 45.7481 78.737 45.7642 78.6433 45.799C78.4545 45.8693 78.3013 46.0115 78.2172 46.1946C78.1331 46.3777 78.125 46.5866 78.1947 46.7756C78.1947 46.7756 78.4965 47.6334 79.2688 48.3043C79.4838 48.4912 79.7481 48.6554 80.0505 48.7816L79.9617 49.4811C79.9362 49.6813 79.9912 49.8834 80.1146 50.043C80.238 50.2026 80.4198 50.3066 80.6199 50.3323C80.7191 50.3449 80.8197 50.3379 80.9162 50.3116C81.0126 50.2853 81.1029 50.2403 81.1819 50.1791C81.261 50.1179 81.3272 50.0418 81.3768 49.955C81.4264 49.8682 81.4584 49.7725 81.471 49.6734L81.5551 49.0125C82.0696 48.9667 82.5702 48.8205 83.0284 48.582C83.9169 48.1314 84.3968 47.2623 84.3441 46.4712C84.292 45.6802 83.8962 45.0073 83.4569 44.4085C82.6185 43.265 81.5197 42.3892 81.421 42.3111C81.4129 42.3038 80.9443 41.8478 80.7394 41.3332C80.6359 41.0742 80.6046 40.8392 80.666 40.6169C80.7267 40.3946 80.8822 40.1276 81.3682 39.8092C81.7968 39.5275 82.0544 39.5121 82.2787 39.5562C82.503 39.6009 82.736 39.7464 82.9543 39.9694C83.3902 40.414 83.6632 41.0715 83.6632 41.0715C83.7359 41.2596 83.8803 41.4112 84.0647 41.4929C84.249 41.5747 84.4583 41.5799 84.6465 41.5074C84.8348 41.4347 84.9865 41.2902 85.0682 41.1057C85.15 40.9212 85.1551 40.7117 85.0824 40.5234C85.0824 40.5234 84.7593 39.637 84.041 38.9047C83.756 38.613 83.3902 38.3326 82.9369 38.167L83.0104 37.5963C83.023 37.4971 83.016 37.3965 82.9897 37.3C82.9634 37.2036 82.9184 37.1133 82.8572 37.0343C82.796 36.9552 82.7199 36.889 82.6331 36.8394C82.5463 36.7898 82.4507 36.7578 82.3515 36.7452Z" fill="white"/>
<path d="M46 45.4832C46 45.4832 52.6974 37.629 57.5104 40.5274L59.0557 41.474C63.878 44.4285 65.3913 50.7328 62.4368 55.5557C59.4823 60.3787 53.1774 61.8907 48.3551 58.9362L46.4633 57.7766C41.677 54.8101 43.0548 50.2902 46 45.4832Z" fill="#FFAC17"/>
<path d="M43.0588 43.6816C43.7614 42.5349 44.683 41.5379 45.7709 40.7474C46.8588 39.9569 48.0918 39.3885 49.3994 39.0745C50.707 38.7605 52.0637 38.7072 53.3919 38.9176C54.7201 39.1279 55.9939 39.5978 57.1405 40.3005C59.4561 41.7194 61.1132 44.0001 61.7473 46.6408C62.3813 49.2815 61.9405 52.0659 60.5216 54.3815C59.819 55.5282 58.8975 56.5252 57.8095 57.3157C56.7216 58.1062 55.4886 58.6746 54.181 58.9886C52.8734 59.3026 51.5168 59.3559 50.1885 59.1455C48.8603 58.9352 47.5865 58.4653 46.4399 57.7626C44.1243 56.3437 42.4672 54.063 41.8332 51.4223C41.1991 48.7816 41.64 45.9972 43.0588 43.6816Z" fill="#FFC517"/>
<path d="M48.3564 54.957C48.5284 55.0623 48.7353 55.095 48.9314 55.048C49.1275 55.0009 49.297 54.8779 49.4025 54.706L49.785 54.0825C50.0854 54.1252 50.4098 54.1239 50.7496 54.0691C51.5913 53.9356 52.2428 53.5845 52.6527 53.0892C53.0632 52.5945 53.2068 52.0084 53.2295 51.5031C53.251 50.8801 53.1369 50.2599 52.895 49.6854C52.8849 49.659 52.8733 49.6331 52.8603 49.608C52.8603 49.608 52.2295 48.365 51.9812 47.1995C51.857 46.6161 51.8577 46.0727 51.9571 45.8063C52.0573 45.5393 52.1007 45.4352 52.6681 45.4085C53.9611 45.3484 54.2902 45.8063 54.5292 46.323C54.7681 46.8397 54.7441 47.4144 54.7441 47.4144C54.7373 47.5142 54.7502 47.6142 54.7821 47.709C54.814 47.8037 54.8642 47.8912 54.9299 47.9665C54.9956 48.0419 55.0755 48.1035 55.165 48.1479C55.2546 48.1924 55.352 48.2187 55.4517 48.2255C55.6528 48.2391 55.851 48.1723 56.0029 48.0399C56.1548 47.9075 56.248 47.7203 56.2621 47.5192C56.2621 47.5192 56.3395 46.6134 55.9103 45.6848C55.7793 45.4071 55.6049 45.152 55.3936 44.9292L55.7614 44.3284C55.8137 44.2432 55.8487 44.1485 55.8643 44.0498C55.88 43.9511 55.8761 43.8503 55.8528 43.7531C55.8295 43.6559 55.7872 43.5642 55.7285 43.4833C55.6698 43.4025 55.5957 43.3339 55.5104 43.2817C55.3383 43.1764 55.1315 43.1438 54.9353 43.191C54.7392 43.2382 54.5698 43.3613 54.4644 43.5334L54.1173 44.1008C53.6292 43.9312 53.1125 43.8591 52.5966 43.8885C51.602 43.9352 50.8083 44.5307 50.5313 45.273C50.2542 46.0153 50.339 46.7916 50.4939 47.5172C50.7889 48.9037 51.4311 50.1533 51.4892 50.2655C51.4932 50.2755 51.7335 50.883 51.7095 51.4364C51.6961 51.7147 51.6294 51.9424 51.4825 52.1199C51.335 52.2975 51.0833 52.4771 50.5099 52.5678C50.0039 52.6479 49.7629 52.5565 49.5767 52.4243C49.3898 52.2921 49.2376 52.0638 49.1301 51.7708C48.9152 51.186 48.9365 50.4751 48.9365 50.4751C48.9474 50.2738 48.878 50.0763 48.7435 49.9261C48.6089 49.7759 48.4203 49.6853 48.2189 49.6741C48.0175 49.6631 47.8199 49.7327 47.6697 49.8674C47.5195 50.002 47.4289 50.1909 47.4179 50.3923C47.4179 50.3923 47.3484 51.3329 47.7022 52.2948C47.8424 52.678 48.0614 53.0845 48.4058 53.421L48.1054 53.9109C48.0001 54.0829 47.9674 54.2897 48.0144 54.4859C48.0615 54.682 48.1845 54.8515 48.3564 54.957Z" fill="white"/>
<path d="M94.281 42.4193C94.281 42.4193 98.3043 49.6821 80.4163 51.15C62.5289 52.6172 34.2386 53.0211 33.1212 57.0784C32.003 61.1357 31.6773 87.1951 33.4522 93.2717C35.2266 99.3483 39.143 98.0479 46.3024 98.3617C53.4631 98.6754 88.6837 94.5059 94.4339 90.5895C100.183 86.6737 99.347 46.2155 94.281 42.4193Z" fill="#7738C7"/>
<path d="M42.0602 72.4698C40.1223 72.1728 37.2099 73.2288 34.9576 73.2509C34.005 73.2569 33.0567 73.1238 32.1426 72.8557C32.1426 72.8557 29.9844 74.6033 30.3756 76.8282C30.7668 79.0538 32.3248 82.3514 32.3248 82.3514C34.9569 82.6919 38.067 82.3594 40.5496 82.027C44.7083 81.4703 45.0888 75.2561 43.6129 73.3056C43.2437 72.8183 42.7064 72.5686 42.0602 72.4698Z" fill="#FFC517"/>
<path d="M42.2812 77.682C42.2265 78.1098 42.0881 78.5227 41.8739 78.8971C41.6597 79.2714 41.3738 79.5999 41.0327 79.8638C40.6915 80.1277 40.3017 80.3218 39.8855 80.435C39.4693 80.5482 39.0349 80.5784 38.607 80.5237C37.7431 80.4133 36.9584 79.9643 36.4255 79.2754C35.8925 78.5865 35.6551 77.7142 35.7653 76.8502C35.8199 76.4224 35.9582 76.0095 36.1723 75.6351C36.3865 75.2607 36.6722 74.9322 37.0134 74.6682C37.3545 74.4043 37.7442 74.2101 38.1604 74.0968C38.5765 73.9835 39.0109 73.9533 39.4388 74.0078C39.8667 74.0624 40.2796 74.2007 40.6541 74.4149C41.0285 74.6291 41.3571 74.9149 41.621 75.2561C41.885 75.5973 42.0791 75.9872 42.1924 76.4034C42.3057 76.8196 42.3358 77.2541 42.2812 77.682Z" fill="#FF4B3D"/>
<path d="M29.9183 68.8765C26.371 68.761 25.5092 77.9323 27.9891 80.5364C28.9891 81.5864 30.5478 82.1218 32.3248 82.3521C32.1733 79.0898 32.1466 73.8516 32.1426 72.8563C30.7054 72.4398 29.8115 71.8437 29.8115 71.8437L29.9183 68.8765ZM65.9607 22.327C65.9607 22.327 71.8284 30.6699 67.2905 33.9742L65.8172 35.0303C61.2179 38.3246 54.2641 37.665 50.2856 33.5563C46.3064 29.4483 46.8091 23.4471 51.4071 20.1522C51.4224 20.1422 53.1974 18.8705 53.2121 18.8598C57.8114 15.6009 61.9949 18.2323 65.9607 22.327Z" fill="#FFAC17"/>
<path d="M68.7657 20.3177C70.6767 22.2906 71.6322 24.8112 71.4219 27.3249C71.2115 29.8387 69.8527 32.1397 67.6443 33.7219C65.4357 35.3039 62.5586 36.0374 59.6457 35.7609C56.7329 35.4845 54.0229 34.2209 52.112 32.248C50.2011 30.275 49.2458 27.7544 49.4562 25.2406C49.6666 22.7269 51.0256 20.4259 53.2341 18.8438C55.4426 17.262 58.3197 16.5286 61.2323 16.805C64.145 17.0814 66.8549 18.345 68.7657 20.3177Z" fill="#FFC517"/>
<path d="M55.485 21.4071C55.4037 21.4653 55.3371 21.5372 55.2889 21.6188C55.2406 21.7003 55.2118 21.7899 55.2041 21.8824C55.1963 21.9749 55.2098 22.0685 55.2437 22.1578C55.2776 22.2472 55.3312 22.3305 55.4016 22.4031L55.9156 22.9345C55.7676 23.1982 55.666 23.4854 55.6152 23.7836C55.4777 24.5639 55.6259 25.2455 55.9997 25.7608C56.3735 26.2755 56.9269 26.5866 57.4369 26.7655C58.071 26.9811 58.7398 27.0759 59.4088 27.0452C59.4393 27.0446 59.4696 27.0426 59.4996 27.0392C59.4996 27.0392 60.9789 26.8776 62.2545 27.0271C62.892 27.1019 63.4494 27.2741 63.6898 27.4457C63.9307 27.6166 64.0235 27.6887 63.866 28.1933C63.5062 29.3462 62.9294 29.4904 62.3226 29.5364C61.7152 29.5831 61.1338 29.3809 61.1338 29.3809C61.0337 29.3435 60.9269 29.3233 60.8195 29.3215C60.712 29.3196 60.6059 29.3361 60.5073 29.37C60.4088 29.4039 60.3196 29.4546 60.245 29.5191C60.1703 29.5836 60.1117 29.6607 60.0724 29.746C59.9931 29.9178 59.997 30.1124 60.0832 30.2871C60.1694 30.4618 60.3309 30.6024 60.5323 30.6779C60.5323 30.6779 61.4355 31.031 62.5262 30.9476C62.83 30.9242 63.1517 30.8541 63.4695 30.7333L63.9648 31.2446C64.0351 31.3173 64.1208 31.3778 64.2169 31.4227C64.313 31.4675 64.4177 31.4958 64.5249 31.506C64.6322 31.5161 64.7399 31.508 64.842 31.4819C64.944 31.4559 65.0384 31.4124 65.1196 31.3541C65.2835 31.2366 65.3843 31.0657 65.3998 30.879C65.4153 30.6924 65.3443 30.5053 65.2024 30.3588L64.7338 29.8755C65.0611 29.5108 65.3044 29.0788 65.4467 28.6099C65.5761 28.2048 65.5735 27.7691 65.4394 27.3655C65.3052 26.962 65.0465 26.6114 64.7004 26.3643C64.0302 25.8877 63.2071 25.7168 62.4134 25.624C60.8961 25.4457 59.4068 25.6146 59.2727 25.6306C59.2613 25.6306 58.5604 25.6507 58.001 25.4544C57.7193 25.3556 57.509 25.2248 57.3748 25.0399C57.2407 24.855 57.1385 24.5779 57.232 24.0466C57.3141 23.578 57.487 23.3957 57.6832 23.2742C57.8795 23.1527 58.1639 23.0913 58.4976 23.0893C59.1672 23.0853 59.8895 23.3276 59.8895 23.3276C60.0923 23.4007 60.3173 23.4021 60.5151 23.3315C60.7129 23.2609 60.8672 23.1241 60.9442 22.9511C61.021 22.7781 61.0141 22.5831 60.925 22.4091C60.8358 22.2351 60.6718 22.0963 60.4689 22.0233C60.4689 22.0233 59.5277 21.6661 58.4262 21.6721C57.9876 21.6748 57.5003 21.7389 57.0437 21.9345L56.6385 21.5166C56.4966 21.3702 56.2953 21.2764 56.079 21.2559C55.8627 21.2353 55.6491 21.2897 55.485 21.4071Z" fill="white"/>
<path d="M76.1694 31.1772C75.7088 31.1185 75.8957 28.5031 75.612 28.1366C75.3283 27.7694 72.7496 27.2935 72.8084 26.8336C72.8671 26.3736 75.4825 26.5599 75.8497 26.2768C76.2168 25.9925 76.6921 23.4144 77.1527 23.4732C77.6126 23.5319 77.4264 26.1473 77.7094 26.5138C77.9931 26.881 80.5718 27.3569 80.5131 27.8168C80.4543 28.2774 77.8389 28.0905 77.4725 28.3742C77.1053 28.6579 76.6293 31.2353 76.1694 31.1772Z" fill="#7738C7"/>
<path d="M40.2258 43.285C39.623 43.3738 38.9341 39.9967 38.4448 39.6323C37.9562 39.2685 34.523 39.5775 34.4349 38.9741C34.3461 38.3713 37.7238 37.6824 38.0877 37.1938C38.4521 36.7044 38.1431 33.2713 38.7459 33.1832C39.3493 33.0951 40.0382 36.4721 40.5268 36.836C41.0161 37.2004 44.4486 36.8914 44.5374 37.4941C44.6255 38.0976 41.2485 38.7865 40.884 39.2751C40.5202 39.7644 40.8292 43.1969 40.2258 43.285Z" fill="#FF4B3D"/>
<path d="M83.2099 19.8645C83.1819 20.0845 83.1108 20.2969 83.0007 20.4894C82.8906 20.682 82.7436 20.851 82.5682 20.9867C82.3928 21.1225 82.1923 21.2224 81.9783 21.2806C81.7642 21.3389 81.5408 21.3544 81.3208 21.3264C80.8765 21.2696 80.473 21.0387 80.1989 20.6844C79.9249 20.3301 79.8028 19.8815 79.8596 19.4372C79.8876 19.2172 79.9587 19.0048 80.0688 18.8123C80.1789 18.6197 80.3259 18.4507 80.5013 18.315C80.6767 18.1792 80.8772 18.0793 81.0912 18.0211C81.3052 17.9628 81.5286 17.9472 81.7487 17.9753C81.9687 18.0033 82.1811 18.0744 82.3737 18.1846C82.5662 18.2947 82.7352 18.4416 82.871 18.6171C83.0067 18.7925 83.1066 18.9929 83.1649 19.207C83.2231 19.421 83.238 19.6444 83.2099 19.8645Z" fill="#FFC517"/>
<path d="M65.9981 39.9026C65.9701 40.1227 65.899 40.335 65.7889 40.5276C65.6788 40.7202 65.5318 40.8891 65.3564 41.0249C65.1809 41.1607 64.9805 41.2605 64.7665 41.3188C64.5524 41.3771 64.329 41.3926 64.109 41.3645C63.8889 41.3365 63.6766 41.2654 63.484 41.1553C63.2914 41.0452 63.1225 40.8982 62.9867 40.7228C62.8509 40.5474 62.7511 40.3469 62.6928 40.1329C62.6345 39.9189 62.619 39.6954 62.6471 39.4754C62.6751 39.2554 62.7462 39.043 62.8563 38.8504C62.9664 38.6579 63.1134 38.4889 63.2888 38.3531C63.4642 38.2174 63.6647 38.1175 63.8787 38.0592C64.0928 38.001 64.3162 37.9854 64.5362 38.0135C64.7563 38.0415 64.9686 38.1126 65.1612 38.2227C65.3537 38.3328 65.5227 38.4798 65.6585 38.6552C65.7942 38.8307 65.8941 39.0311 65.9524 39.2452C66.0107 39.4592 66.0262 39.6826 65.9981 39.9026Z" fill="#7738C7"/>
<path d="M35.0343 27.1213C35.0198 27.2354 34.9828 27.3455 34.9257 27.4453C34.8686 27.5451 34.7923 27.6327 34.7013 27.7031C34.6103 27.7734 34.5063 27.8252 34.3953 27.8553C34.2843 27.8855 34.1685 27.8935 34.0544 27.8789C33.8241 27.8495 33.6149 27.7298 33.4729 27.5461C33.3308 27.3625 33.2674 27.13 33.2967 26.8996C33.3112 26.7855 33.3481 26.6753 33.4052 26.5754C33.4623 26.4755 33.5386 26.3878 33.6296 26.3174C33.7206 26.247 33.8246 26.1952 33.9356 26.165C34.0466 26.1348 34.1625 26.1267 34.2767 26.1413C34.3908 26.1559 34.5009 26.1928 34.6007 26.25C34.7005 26.3071 34.7881 26.3834 34.8585 26.4744C34.9289 26.5654 34.9806 26.6693 35.0108 26.7803C35.0409 26.8913 35.049 27.0072 35.0343 27.1213Z" fill="#FF4B3D"/>
<path d="M44.7464 29.4109C44.6828 29.9086 44.4241 30.3606 44.0273 30.6676C43.6305 30.9745 43.1279 31.1113 42.6303 31.0477C42.3838 31.0163 42.1459 30.9367 41.9303 30.8133C41.7146 30.69 41.5253 30.5254 41.3732 30.3289C41.2212 30.1324 41.1093 29.9078 41.044 29.6681C40.9788 29.4283 40.9614 29.1781 40.9928 28.9316C41.0242 28.6852 41.1039 28.4473 41.2272 28.2316C41.3506 28.0159 41.5152 27.8266 41.7117 27.6746C41.9082 27.5225 42.1327 27.4107 42.3725 27.3454C42.6122 27.2801 42.8624 27.2627 43.1089 27.2942C43.3554 27.3255 43.5934 27.4051 43.8092 27.5284C44.0249 27.6517 44.2143 27.8163 44.3664 28.0128C44.5185 28.2093 44.6304 28.4339 44.6958 28.6737C44.7611 28.9134 44.7785 29.1637 44.7471 29.4103L44.7464 29.4109Z" fill="#FFC517"/>
<path d="M87.8406 28.2367C87.8261 28.3509 87.7893 28.461 87.7322 28.561C87.6751 28.6609 87.5988 28.7485 87.5078 28.8189C87.4168 28.8894 87.3128 28.9412 87.2018 28.9714C87.0907 29.0016 86.9748 29.0096 86.8607 28.995C86.7466 28.9805 86.6365 28.9435 86.5367 28.8864C86.4368 28.8292 86.3492 28.753 86.2789 28.662C86.2085 28.571 86.1568 28.467 86.1266 28.356C86.0964 28.245 86.0884 28.1292 86.103 28.0151C86.1325 27.7848 86.2522 27.5756 86.4358 27.4335C86.6195 27.2915 86.852 27.2281 87.0823 27.2574C87.3127 27.2867 87.5221 27.4064 87.6643 27.59C87.8065 27.7737 87.8699 28.0063 87.8406 28.2367Z" fill="#FF4B3D"/>
<path d="M91.2077 52.3843C91.2017 52.3834 91.1957 52.3828 91.1897 52.3823C91.12 52.3767 91.0501 52.3904 90.9877 52.422C90.9252 52.4535 90.8727 52.5017 90.8359 52.5612C90.7264 52.7367 90.5742 52.9056 90.404 53.0752C90.3326 53.1462 90.2923 53.2427 90.2919 53.3434C90.2915 53.4442 90.3311 53.5409 90.402 53.6125C90.4732 53.684 90.5698 53.7244 90.6707 53.7246C90.7716 53.7249 90.8685 53.685 90.94 53.6139C91.1283 53.427 91.3225 53.2187 91.4814 52.9637C91.5081 52.9213 91.5261 52.8741 91.5345 52.8248C91.5429 52.7754 91.5415 52.7249 91.5304 52.6761C91.5192 52.6273 91.4985 52.5811 91.4695 52.5403C91.4405 52.4995 91.4037 52.4649 91.3613 52.4383C91.3146 52.4094 91.2622 52.391 91.2077 52.3843ZM88.2025 54.6352C88.1907 54.6333 88.1789 54.632 88.1671 54.6312C88.1041 54.6276 88.0413 54.6398 87.9842 54.6666C87.7599 54.7714 87.5336 54.8715 87.3053 54.9636C87.2119 55.0014 87.1373 55.0747 87.0979 55.1675C87.0584 55.2602 87.0574 55.3648 87.095 55.4583C87.1327 55.5518 87.2059 55.6265 87.2987 55.6661C87.3914 55.7056 87.4961 55.7068 87.5897 55.6692C87.832 55.5711 88.071 55.4663 88.3066 55.3555C88.3975 55.3124 88.4677 55.235 88.5017 55.1403C88.5358 55.0456 88.5309 54.9413 88.4882 54.8501C88.4618 54.7937 88.422 54.7445 88.3721 54.707C88.3223 54.6695 88.264 54.6449 88.2025 54.6352ZM84.6024 55.8501C84.555 55.8434 84.5068 55.8456 84.4602 55.8568C84.2153 55.9149 83.9729 55.9703 83.7306 56.019C83.6323 56.0391 83.5459 56.0973 83.4903 56.1808C83.4347 56.2643 83.4143 56.3664 83.4336 56.4649C83.4532 56.5636 83.5112 56.6505 83.5948 56.7065C83.6783 56.7626 83.7807 56.7832 83.8795 56.764C84.1345 56.7132 84.3875 56.6552 84.6365 56.5964C84.7343 56.5727 84.8187 56.5112 84.8712 56.4253C84.9237 56.3395 84.9402 56.2364 84.9168 56.1385C84.8991 56.0646 84.8597 55.9978 84.8037 55.9465C84.7477 55.8952 84.6776 55.8612 84.6024 55.8501ZM80.8328 56.4823C80.8077 56.48 80.7825 56.4802 80.7574 56.4829C80.5084 56.5116 80.2607 56.5377 80.0118 56.5597C79.9114 56.5685 79.8187 56.6168 79.7539 56.6939C79.6891 56.7709 79.6575 56.8706 79.666 56.9709C79.6703 57.0207 79.6843 57.0692 79.7073 57.1135C79.7304 57.1579 79.7619 57.1973 79.8001 57.2295C79.8384 57.2616 79.8826 57.286 79.9302 57.301C79.9779 57.3161 80.0281 57.3217 80.0778 57.3174C80.3337 57.2948 80.5891 57.2686 80.8442 57.2386C80.8939 57.233 80.942 57.2176 80.9858 57.1933C81.0296 57.169 81.0681 57.1364 81.0993 57.0972C81.1304 57.058 81.1535 57.013 81.1672 56.9649C81.1809 56.9168 81.185 56.8664 81.1793 56.8167C81.1693 56.7337 81.1322 56.6563 81.0738 56.5964C81.0154 56.5366 80.9389 56.4976 80.8562 56.4856C80.8484 56.4843 80.8407 56.4831 80.8328 56.4823ZM77.0506 56.7366C77.0328 56.7345 77.015 56.7336 76.9972 56.7339L76.2362 56.7573C76.1862 56.7588 76.137 56.7701 76.0914 56.7906C76.0458 56.8111 76.0047 56.8403 75.9704 56.8767C75.9361 56.9131 75.9093 56.9559 75.8916 57.0026C75.8738 57.0494 75.8655 57.0992 75.867 57.1491C75.8685 57.1991 75.8798 57.2483 75.9003 57.2939C75.9208 57.3395 75.95 57.3806 75.9864 57.4149C76.0228 57.4492 76.0656 57.476 76.1124 57.4937C76.1591 57.5115 76.2089 57.5198 76.2589 57.5183L77.0198 57.4949C77.1204 57.4914 77.2155 57.4483 77.2843 57.3748C77.3531 57.3014 77.3901 57.2037 77.387 57.1031C77.3842 57.0118 77.3487 56.9245 77.287 56.8572C77.2252 56.79 77.1413 56.7471 77.0506 56.7366ZM73.2549 56.8654C73.2518 56.8652 73.2487 56.865 73.2456 56.8648C73.2279 56.8626 73.21 56.8617 73.1922 56.8621L72.4332 56.8921C72.3832 56.894 72.3341 56.9058 72.2887 56.9267C72.2432 56.9475 72.2023 56.9772 72.1684 57.0139C72.1344 57.0506 72.108 57.0936 72.0906 57.1406C72.0733 57.1875 72.0654 57.2374 72.0674 57.2873C72.0715 57.388 72.1155 57.483 72.1896 57.5513C72.2637 57.6196 72.3619 57.6558 72.4626 57.6518L73.2229 57.6224C73.3234 57.6183 73.4181 57.5745 73.4864 57.5007C73.5547 57.4269 73.591 57.3291 73.5874 57.2286C73.584 57.1385 73.5487 57.0525 73.4878 56.986C73.4269 56.9195 73.3444 56.8768 73.2549 56.8654ZM69.4446 57.0216C69.4269 57.0197 69.409 57.0191 69.3912 57.0196L69.1295 57.031C69.1289 57.031 69.1282 57.031 69.1275 57.031L68.6302 57.0544C68.5803 57.0567 68.5313 57.0688 68.4861 57.09C68.4408 57.1113 68.4002 57.1412 68.3666 57.1782C68.3329 57.2151 68.3069 57.2584 68.2899 57.3054C68.2729 57.3524 68.2654 57.4023 68.2677 57.4522C68.2726 57.5529 68.3172 57.6476 68.3918 57.7154C68.4664 57.7833 68.5649 57.8187 68.6656 57.814L69.1629 57.79L69.4246 57.78C69.4746 57.7778 69.5236 57.7658 69.569 57.7447C69.6143 57.7236 69.6551 57.6937 69.6889 57.6568C69.7227 57.6199 69.7488 57.5767 69.7659 57.5297C69.783 57.4827 69.7906 57.4328 69.7884 57.3828C69.7842 57.2913 69.7471 57.2044 69.6839 57.1381C69.6208 57.0717 69.5358 57.0304 69.4446 57.0216ZM65.6437 57.2026C65.6259 57.2006 65.6081 57.2 65.5902 57.2005L64.8299 57.2406C64.7294 57.2461 64.6352 57.2912 64.5679 57.366C64.5006 57.4409 64.4657 57.5393 64.4708 57.6398C64.4763 57.7403 64.5214 57.8345 64.5962 57.9018C64.671 57.9691 64.7695 58.004 64.87 57.9989L65.6283 57.9602C65.729 57.955 65.8236 57.9101 65.8912 57.8352C65.9588 57.7604 65.9939 57.6617 65.9888 57.561C65.9839 57.4698 65.9463 57.3834 65.8829 57.3175C65.8196 57.2517 65.7346 57.2109 65.6437 57.2026ZM61.852 57.4075C61.8496 57.4075 61.8471 57.4075 61.8447 57.4075C61.8265 57.4057 61.8082 57.4053 61.79 57.4062L61.3067 57.4329L61.0316 57.4489C60.9816 57.4517 60.9327 57.4643 60.8876 57.4861C60.8425 57.5079 60.8021 57.5383 60.7688 57.5757C60.7355 57.6131 60.7099 57.6567 60.6935 57.704C60.6771 57.7513 60.6702 57.8014 60.6732 57.8514C60.6793 57.952 60.7252 58.0461 60.8007 58.1129C60.8762 58.1797 60.9751 58.2139 61.0757 58.2079L61.3514 58.1918L61.8333 58.1651C61.934 58.1593 62.0281 58.1138 62.0952 58.0385C62.1623 57.9633 62.1968 57.8646 62.1911 57.7639C62.186 57.674 62.1491 57.5888 62.087 57.5235C62.0249 57.4583 61.9416 57.4171 61.852 57.4075ZM58.0551 57.6358C58.0517 57.6355 58.0484 57.6353 58.0451 57.6351C58.0275 57.6337 58.0099 57.6334 57.9923 57.6344L57.2327 57.6832C57.1322 57.69 57.0385 57.7365 56.9721 57.8123C56.9058 57.8881 56.8723 57.9872 56.8789 58.0877C56.8854 58.1883 56.9316 58.2823 57.0073 58.3488C57.083 58.4154 57.1821 58.4492 57.2827 58.4428L58.0411 58.3941C58.091 58.391 58.1398 58.378 58.1848 58.356C58.2297 58.3339 58.2698 58.3032 58.3029 58.2657C58.3359 58.2281 58.3612 58.1844 58.3774 58.137C58.3935 58.0896 58.4001 58.0395 58.3969 57.9896C58.391 57.8997 58.3534 57.8148 58.2908 57.75C58.2282 57.6852 58.1447 57.6448 58.0551 57.6358ZM54.2568 57.8941C54.2541 57.8939 54.2514 57.8936 54.2488 57.8935C54.231 57.8918 54.2132 57.8913 54.1954 57.8921L53.4357 57.9475C53.3352 57.955 53.2417 58.0021 53.1759 58.0785C53.1101 58.1548 53.0772 58.2542 53.0846 58.3547C53.0919 58.4552 53.1389 58.5487 53.2151 58.6147C53.2913 58.6807 53.3906 58.7137 53.4911 58.7065L54.2501 58.6511C54.3505 58.6436 54.4438 58.5966 54.5097 58.5204C54.5755 58.4442 54.6084 58.345 54.6012 58.2446C54.5945 58.1549 54.5562 58.0704 54.4932 58.0063C54.4301 57.9421 54.3464 57.9024 54.2568 57.8941ZM50.4632 58.1872C50.4603 58.1869 50.4574 58.1867 50.4545 58.1865C50.4367 58.1853 50.4189 58.1853 50.4011 58.1865C50.1467 58.2079 49.8937 58.2299 49.6401 58.2526C49.5396 58.2614 49.4468 58.3097 49.382 58.387C49.3171 58.4642 49.2856 58.564 49.2943 58.6645C49.2987 58.7143 49.3128 58.7628 49.336 58.8072C49.3591 58.8516 49.3908 58.891 49.4292 58.9231C49.4675 58.9552 49.5119 58.9794 49.5596 58.9944C49.6074 59.0094 49.6577 59.0147 49.7075 59.0102C49.9592 58.9882 50.2102 58.9662 50.4618 58.9455C50.5624 58.9373 50.6556 58.8896 50.7209 58.8127C50.7863 58.7358 50.8184 58.6362 50.8103 58.5356C50.803 58.4459 50.7642 58.3616 50.7006 58.2978C50.637 58.234 50.5529 58.1948 50.4632 58.1872ZM46.6822 58.5363C46.6569 58.5338 46.6314 58.5338 46.6061 58.5363L46.279 58.5697C46.2786 58.5697 46.2781 58.5697 46.2777 58.5697L45.8491 58.6151C45.7994 58.6202 45.7511 58.6352 45.7071 58.659C45.6631 58.6828 45.6243 58.7151 45.5928 58.754C45.5613 58.7929 45.5377 58.8376 45.5235 58.8856C45.5093 58.9335 45.5048 58.9838 45.51 59.0336C45.5208 59.1339 45.5709 59.2258 45.6494 59.2891C45.7279 59.3525 45.8283 59.382 45.9286 59.3714L46.3565 59.3273L46.6829 59.2939C46.7327 59.2889 46.7809 59.2742 46.825 59.2505C46.869 59.2268 46.908 59.1947 46.9396 59.1559C46.9712 59.1172 46.9949 59.0726 47.0093 59.0247C47.0236 58.9768 47.0284 58.9265 47.0233 58.8767C47.0149 58.7934 46.9791 58.7152 46.9217 58.6543C46.8642 58.5933 46.7883 58.553 46.7056 58.5396C46.6978 58.5383 46.69 58.5372 46.6822 58.5363ZM42.9173 58.9769C42.884 58.9727 42.8504 58.9729 42.8172 58.9775C42.5635 59.0109 42.3098 59.0483 42.0575 59.0863C41.9581 59.1017 41.8689 59.1557 41.8092 59.2366C41.7495 59.3175 41.7243 59.4188 41.7391 59.5182C41.7464 59.5678 41.7635 59.6153 41.7892 59.6583C41.815 59.7012 41.849 59.7386 41.8892 59.7684C41.9295 59.7981 41.9752 59.8196 42.0238 59.8317C42.0724 59.8438 42.1228 59.8461 42.1723 59.8387C42.4213 59.8006 42.6696 59.7652 42.918 59.7319C43.018 59.7186 43.1086 59.6661 43.17 59.586C43.2313 59.5059 43.2583 59.4047 43.2451 59.3046C43.2341 59.2214 43.196 59.1442 43.1366 59.0849C43.0772 59.0256 43.0005 58.9876 42.9173 58.9769ZM39.1724 59.6758C39.1691 59.6757 39.1657 59.6757 39.1624 59.6758C39.1146 59.6722 39.0666 59.6776 39.0209 59.6918C38.7779 59.7672 38.5015 59.852 38.2332 60.0122C38.1468 60.0643 38.0847 60.1485 38.0604 60.2464C38.0361 60.3443 38.0517 60.4478 38.1037 60.5342C38.1558 60.6206 38.24 60.6827 38.3379 60.707C38.4358 60.7313 38.5393 60.7157 38.6257 60.6637C38.7932 60.5636 39.0075 60.4915 39.2465 60.4167C39.3427 60.3865 39.4229 60.3193 39.4696 60.23C39.5163 60.1406 39.5256 60.0363 39.4955 59.9401C39.4733 59.8694 39.4308 59.8067 39.3734 59.7597C39.316 59.7127 39.2462 59.6836 39.1724 59.6758ZM37.9221 62.884C37.9194 62.8837 37.9168 62.8835 37.9141 62.8833C37.911 62.8833 37.9079 62.8833 37.9048 62.8833C37.8043 62.8771 37.7055 62.9109 37.63 62.9773C37.5544 63.0437 37.5083 63.1374 37.5016 63.2378C37.4855 63.4914 37.4695 63.7464 37.4568 64.0021C37.4542 64.0521 37.4615 64.1021 37.4783 64.1493C37.495 64.1964 37.5209 64.2398 37.5544 64.277C37.588 64.3141 37.6285 64.3443 37.6738 64.3657C37.719 64.3872 37.768 64.3995 37.818 64.402C37.9186 64.4067 38.017 64.3713 38.0915 64.3036C38.1661 64.2359 38.2108 64.1414 38.2158 64.0408C38.2285 63.7905 38.2445 63.5395 38.2612 63.2865C38.2675 63.1886 38.2357 63.0921 38.1725 63.0171C38.1093 62.9421 38.0196 62.8944 37.9221 62.884ZM37.7726 66.6836C37.7626 66.6823 37.7526 66.6814 37.7425 66.6809C37.7394 66.6811 37.7363 66.6813 37.7332 66.6816C37.6832 66.6804 37.6335 66.6892 37.5869 66.7072C37.5403 66.7253 37.4977 66.7523 37.4616 66.7869C37.4254 66.8214 37.3965 66.8627 37.3763 66.9085C37.3561 66.9542 37.3451 67.0034 37.344 67.0534L37.3293 67.7343C37.3293 67.7348 37.3293 67.7352 37.3293 67.7356L37.328 67.8151C37.3271 67.865 37.3361 67.9147 37.3544 67.9612C37.3727 68.0077 37.4 68.0501 37.4347 68.0861C37.4694 68.1221 37.5109 68.1508 37.5567 68.1708C37.6025 68.1907 37.6519 68.2014 37.7018 68.2022C37.8026 68.204 37.9 68.1657 37.9726 68.0958C38.0452 68.0258 38.0871 67.9299 38.089 67.8291L38.0897 67.7517L38.1043 67.0708C38.1068 66.9766 38.0742 66.8849 38.0129 66.8134C37.9516 66.7419 37.866 66.6956 37.7726 66.6836ZM90.3579 85.9347C90.2887 85.9262 90.2185 85.9369 90.1549 85.9657C90.0913 85.9944 90.0368 86.04 89.9975 86.0976C89.864 86.2919 89.7171 86.4761 89.5582 86.6503C89.4903 86.7249 89.4547 86.8234 89.4593 86.9241C89.464 87.0249 89.5084 87.1197 89.5829 87.1877C89.6573 87.2558 89.7557 87.2916 89.8564 87.2873C89.9572 87.2829 90.0521 87.2387 90.1203 87.1643C90.3025 86.9641 90.4721 86.7505 90.625 86.5269C90.6819 86.4436 90.7035 86.3412 90.685 86.2421C90.6665 86.1429 90.6093 86.0552 90.5262 85.9982C90.476 85.9639 90.4183 85.9421 90.3579 85.9347ZM87.3493 88.1623C87.2939 88.1564 87.2378 88.1628 87.1851 88.181C86.9655 88.2571 86.7312 88.3172 86.4862 88.3779C86.3886 88.4025 86.3047 88.4648 86.2529 88.5511C86.2011 88.6375 86.1856 88.7408 86.2099 88.8385C86.234 88.9361 86.2958 89.0201 86.3817 89.0723C86.4677 89.1244 86.5707 89.1405 86.6685 89.1169C86.9154 89.0555 87.1738 88.9901 87.4335 88.9C87.5287 88.8672 87.6071 88.798 87.6514 88.7075C87.6957 88.617 87.7023 88.5127 87.6698 88.4173C87.6474 88.3524 87.608 88.2948 87.5556 88.2505C87.5032 88.2062 87.4397 88.1769 87.372 88.1657C87.3643 88.1645 87.3565 88.1636 87.3487 88.163L87.3493 88.1623ZM83.6378 88.9794C83.6347 88.9791 83.6316 88.9789 83.6285 88.9787C83.596 88.9756 83.5632 88.9768 83.531 88.9821L83.0684 89.0655L82.7827 89.1162C82.7335 89.125 82.6864 89.1434 82.6443 89.1704C82.6022 89.1973 82.5658 89.2323 82.5372 89.2734C82.5086 89.3144 82.4884 89.3607 82.4778 89.4096C82.4671 89.4584 82.4661 89.5089 82.475 89.5581C82.4927 89.6573 82.5491 89.7454 82.6316 89.8031C82.7142 89.8608 82.8163 89.8834 82.9156 89.8659L83.2019 89.8151C83.2024 89.8151 83.2028 89.8151 83.2033 89.8151L83.6665 89.7297C83.7656 89.7115 83.8534 89.6548 83.9107 89.5719C83.9681 89.4891 83.9902 89.3869 83.9723 89.2878C83.9573 89.2072 83.9168 89.1336 83.8567 89.0779C83.7965 89.0222 83.72 88.9874 83.6385 88.9787L83.6378 88.9794ZM37.7746 84.0903C37.7569 84.088 37.739 84.0869 37.7212 84.087C37.6712 84.0879 37.6219 84.0986 37.5761 84.1185C37.5302 84.1384 37.4888 84.1672 37.4541 84.2031C37.4194 84.2391 37.3921 84.2815 37.3738 84.328C37.3554 84.3745 37.3465 84.4242 37.3474 84.4742C37.3507 84.7338 37.3614 84.9908 37.3734 85.2458C37.3782 85.3464 37.4228 85.441 37.4972 85.5088C37.5717 85.5766 37.67 85.6122 37.7706 85.6077C37.8713 85.603 37.966 85.5585 38.034 85.4841C38.102 85.4096 38.1376 85.3112 38.1331 85.2105C38.1208 84.9607 38.1123 84.7108 38.1077 84.4608C38.1058 84.3695 38.0712 84.2818 38.01 84.2139C37.9488 84.146 37.8653 84.1017 37.7746 84.0903ZM79.8976 89.6242C79.8943 89.624 79.8909 89.6237 79.8876 89.6236C79.8549 89.6204 79.8219 89.6216 79.7895 89.6269L79.5285 89.669L79.0398 89.7477C78.9904 89.7556 78.943 89.7731 78.9004 89.7994C78.8577 89.8256 78.8207 89.8599 78.7914 89.9005C78.762 89.9411 78.741 89.987 78.7294 90.0357C78.7179 90.0844 78.7161 90.1349 78.7241 90.1843C78.7404 90.2838 78.7956 90.3726 78.8775 90.4315C78.9593 90.4903 79.0612 90.5142 79.1606 90.498L79.6506 90.4199C79.6511 90.4199 79.6515 90.4199 79.652 90.4199L79.9123 90.3765C79.9616 90.3684 80.0088 90.3507 80.0513 90.3243C80.0938 90.298 80.1306 90.2635 80.1597 90.2229C80.1889 90.1823 80.2097 90.1364 80.2211 90.0877C80.2325 90.039 80.2342 89.9886 80.226 89.9393C80.2126 89.8584 80.1733 89.784 80.1141 89.7273C80.0549 89.6705 79.979 89.6343 79.8976 89.6242ZM76.1347 90.2163C76.102 90.2128 76.069 90.2134 76.0366 90.2183L75.2943 90.3325L75.2862 90.3345C75.1865 90.3493 75.0968 90.4032 75.0367 90.4841C74.9766 90.5651 74.9511 90.6666 74.9658 90.7664C74.9732 90.816 74.9902 90.8636 75.016 90.9066C75.0418 90.9495 75.0759 90.987 75.1162 91.0168C75.1565 91.0465 75.2023 91.0681 75.251 91.0801C75.2996 91.0921 75.3502 91.0944 75.3997 91.0868L75.4071 91.0855C75.4077 91.085 75.4084 91.0846 75.4091 91.0841L76.1527 90.9707C76.2522 90.955 76.3415 90.9006 76.401 90.8193C76.4604 90.7379 76.4852 90.6363 76.4698 90.5368C76.457 90.4539 76.4173 90.3776 76.3567 90.3196C76.2961 90.2617 76.218 90.2254 76.1347 90.2163ZM72.3764 90.7791C72.3441 90.7751 72.3113 90.7753 72.279 90.7797L71.546 90.8879L71.528 90.8899C71.4785 90.8969 71.4309 90.9136 71.3879 90.9391C71.3448 90.9646 71.3072 90.9982 71.2772 91.0382C71.2472 91.0782 71.2254 91.1237 71.213 91.1721C71.2006 91.2206 71.1978 91.271 71.2049 91.3204C71.2193 91.4202 71.2726 91.5101 71.3532 91.5705C71.4338 91.631 71.5351 91.657 71.6348 91.6429L71.6548 91.6395C71.6553 91.6395 71.6557 91.6395 71.6562 91.6395L72.3891 91.5321C72.4889 91.5174 72.5787 91.4637 72.6389 91.3829C72.6991 91.302 72.7247 91.2006 72.7102 91.1008C72.6979 91.0178 72.6585 90.9412 72.5982 90.8828C72.5378 90.8245 72.4599 90.7885 72.3764 90.7791ZM68.6149 91.3158C68.5823 91.3115 68.5493 91.3115 68.5167 91.3158L67.7631 91.4212C67.7136 91.4282 67.666 91.4449 67.6229 91.4702C67.5799 91.4956 67.5422 91.5292 67.5122 91.5691C67.4821 91.6091 67.4602 91.6545 67.4477 91.7029C67.4352 91.7513 67.4324 91.8017 67.4393 91.8511C67.4534 91.951 67.5065 92.0411 67.587 92.1018C67.6675 92.1625 67.7687 92.1888 67.8686 92.1749L68.6222 92.0694C68.722 92.0554 68.8122 92.0023 68.8729 91.9218C68.9336 91.8413 68.9599 91.74 68.946 91.6402C68.9344 91.5571 68.8956 91.4801 68.8357 91.4213C68.7758 91.3625 68.6982 91.3259 68.6149 91.3158ZM38.0683 87.8786C38.0353 87.8745 38.0018 87.8747 37.9688 87.8793C37.9194 87.8863 37.8717 87.9029 37.8287 87.9283C37.7856 87.9536 37.748 87.9873 37.7179 88.0272C37.6878 88.0671 37.6659 88.1125 37.6534 88.1609C37.6409 88.2093 37.6381 88.2597 37.6451 88.3092L37.6891 88.6296C37.6891 88.6312 37.6891 88.6327 37.6891 88.6343L37.7559 89.0655C37.7635 89.1149 37.7807 89.1623 37.8066 89.2051C37.8325 89.2478 37.8666 89.285 37.9069 89.3146C37.9472 89.3442 37.9929 89.3655 38.0414 89.3774C38.09 89.3893 38.1404 89.3915 38.1898 89.3839C38.2894 89.3686 38.3789 89.3144 38.4386 89.2332C38.4983 89.1519 38.5234 89.0503 38.5082 88.9507L38.4421 88.5215L38.3987 88.2044C38.3875 88.1212 38.349 88.0441 38.2894 87.9851C38.2297 87.926 38.1522 87.8884 38.069 87.8779L38.0683 87.8786ZM64.8493 91.8304C64.8167 91.8262 64.7837 91.8262 64.7512 91.8304L63.9968 91.9306C63.8969 91.944 63.8064 91.9966 63.7452 92.0767C63.684 92.1568 63.6571 92.2579 63.6704 92.3578C63.6837 92.4578 63.7362 92.5485 63.8163 92.6098C63.8964 92.6712 63.9976 92.6982 64.0976 92.6849L64.852 92.5848C64.952 92.5715 65.0426 92.519 65.104 92.4389C65.1653 92.3588 65.1923 92.2576 65.179 92.1575C65.1679 92.0743 65.1295 91.997 65.0699 91.9378C65.0102 91.8787 64.9327 91.8409 64.8493 91.8304ZM61.0804 92.3224C61.048 92.3182 61.0153 92.3182 60.9829 92.3224L60.2279 92.4172C60.1783 92.4235 60.1305 92.4394 60.0871 92.4642C60.0437 92.489 60.0056 92.522 59.975 92.5615C59.9443 92.601 59.9218 92.6461 59.9086 92.6943C59.8954 92.7425 59.8919 92.7929 59.8982 92.8424C59.9044 92.8921 59.9204 92.94 59.9452 92.9834C59.97 93.0269 60.0031 93.065 60.0427 93.0956C60.0823 93.1263 60.1275 93.1488 60.1757 93.1619C60.224 93.1751 60.2744 93.1786 60.324 93.1722L61.0777 93.0754C61.1774 93.0626 61.268 93.0108 61.3297 92.9314C61.3914 92.8519 61.4191 92.7513 61.4068 92.6515C61.3962 92.5684 61.3585 92.491 61.2995 92.4315C61.2404 92.372 61.1634 92.3337 61.0804 92.3224ZM57.2874 92.7877C57.2621 92.7854 57.2366 92.7856 57.2113 92.7884L56.5671 92.8658L56.457 92.8792C56.3568 92.8909 56.2654 92.9419 56.2028 93.021C56.1402 93.1001 56.1116 93.2008 56.1232 93.301C56.129 93.3507 56.1446 93.3988 56.1689 93.4424C56.1933 93.4861 56.2261 93.5245 56.2653 93.5555C56.3045 93.5865 56.3495 93.6095 56.3976 93.6231C56.4458 93.6367 56.4961 93.6407 56.5458 93.6348L56.6573 93.6215L57.3014 93.544C57.3511 93.5381 57.3991 93.5224 57.4427 93.4978C57.4863 93.4733 57.5247 93.4404 57.5556 93.401C57.5864 93.3617 57.6093 93.3166 57.6227 93.2684C57.6361 93.2202 57.6399 93.1698 57.6339 93.1201C57.6236 93.0373 57.5863 92.9601 57.5278 92.9005C57.4693 92.8409 57.3928 92.8022 57.3101 92.7904C57.3026 92.7892 57.295 92.7884 57.2874 92.7877ZM53.5125 93.2249C53.4876 93.2225 53.4626 93.2225 53.4377 93.2249L52.8142 93.295L52.6827 93.3084C52.5826 93.3193 52.4908 93.3695 52.4276 93.448C52.3644 93.5264 52.335 93.6267 52.3456 93.7269C52.3564 93.8271 52.4064 93.9189 52.4847 93.9822C52.5631 94.0455 52.6633 94.0752 52.7635 94.0647L52.897 94.05C52.8975 94.05 52.8979 94.05 52.8983 94.05L53.5205 93.9806C53.6206 93.9695 53.7123 93.9191 53.7754 93.8406C53.8385 93.762 53.8678 93.6616 53.8569 93.5614C53.8476 93.4782 53.8111 93.4004 53.753 93.34C53.695 93.2797 53.6186 93.2402 53.5358 93.2276C53.5281 93.2265 53.5203 93.2256 53.5125 93.2249ZM38.9101 91.5848C38.8472 91.5753 38.7829 91.5817 38.7232 91.6035C38.6282 91.6376 38.5506 91.708 38.5076 91.7992C38.4645 91.8905 38.4594 91.9951 38.4935 92.0901C38.5823 92.3371 38.6818 92.5834 38.7966 92.8264C38.818 92.8716 38.8482 92.9121 38.8853 92.9456C38.9224 92.9791 38.9658 93.0049 39.0129 93.0217C39.06 93.0384 39.11 93.0457 39.1599 93.0431C39.2098 93.0406 39.2588 93.0282 39.3039 93.0067C39.395 92.9636 39.4653 92.8861 39.4994 92.7912C39.5334 92.6963 39.5284 92.5918 39.4855 92.5007C39.3834 92.2857 39.2926 92.0607 39.2098 91.8311C39.1865 91.7669 39.1464 91.7102 39.0937 91.6669C39.0409 91.6235 38.9775 91.5952 38.9101 91.5848ZM49.7349 93.6221C49.7102 93.6197 49.6854 93.6197 49.6608 93.6221L49.3697 93.6508L48.9038 93.6949C48.8037 93.7047 48.7115 93.7537 48.6475 93.8313C48.5834 93.9088 48.5527 94.0086 48.562 94.1088C48.5715 94.2091 48.6204 94.3016 48.698 94.3659C48.7756 94.4302 48.8755 94.4612 48.9759 94.4519L49.4432 94.4078C49.4436 94.4078 49.4441 94.4078 49.4445 94.4078L49.7342 94.3791C49.8346 94.3693 49.9269 94.3201 49.991 94.2422C50.0551 94.1644 50.0857 94.0643 50.076 93.9639C50.0678 93.8803 50.0322 93.8018 49.9747 93.7406C49.9172 93.6794 49.8411 93.6389 49.7582 93.6255C49.7505 93.6243 49.7427 93.6228 49.7349 93.6221ZM45.9446 93.9532C45.941 93.9529 45.9375 93.9527 45.9339 93.9526C45.9161 93.9513 45.8983 93.9513 45.8805 93.9526L45.6622 93.9706L45.1235 94.0066C45.0229 94.0138 44.9292 94.0607 44.8631 94.1369C44.797 94.2131 44.7639 94.3125 44.7711 94.4132C44.7782 94.5138 44.8251 94.6075 44.9013 94.6736C44.9776 94.7397 45.0769 94.7728 45.1776 94.7656L45.7156 94.7289C45.7167 94.7289 45.7178 94.7289 45.719 94.7289L45.9379 94.7129C45.9878 94.7092 46.0364 94.6957 46.081 94.6732C46.1256 94.6506 46.1654 94.6196 46.198 94.5817C46.2306 94.5438 46.2554 94.4999 46.271 94.4524C46.2867 94.4049 46.2928 94.3549 46.289 94.305C46.2826 94.2151 46.2445 94.1303 46.1814 94.0659C46.1183 94.0015 46.0344 93.9615 45.9446 93.9532ZM42.1663 94.1321C42.1491 94.1296 42.1317 94.1283 42.1143 94.1281C41.8688 94.128 41.6235 94.1198 41.3786 94.1034C41.3287 94.1 41.2787 94.1064 41.2313 94.1223C41.1839 94.1382 41.1401 94.1633 41.1024 94.1962C41.0647 94.229 41.0338 94.269 41.0116 94.3138C40.9893 94.3586 40.9762 94.4073 40.9728 94.4572C40.966 94.5574 40.9991 94.6563 41.0648 94.7322C41.1306 94.8081 41.2237 94.8549 41.3239 94.8624C41.5896 94.8818 41.8526 94.8878 42.1102 94.8891C42.211 94.8895 42.3079 94.8498 42.3795 94.7788C42.451 94.7079 42.4916 94.6114 42.4921 94.5106C42.4926 94.4188 42.4598 94.33 42.4 94.2605C42.3401 94.1909 42.2571 94.1453 42.1663 94.1321Z" fill="white"/>
<path d="M88.7799 60.9628C88.7799 60.9628 89.1003 73.7081 88.834 79.0024C88.5683 84.296 90.2992 77.9597 90.6791 72.578C91.0582 67.1956 89.1057 56.8034 88.7799 60.9628Z" fill="#171D8F"/>
<path d="M40.0529 77.4443C40.0038 77.6281 39.8793 77.8055 39.6865 77.9663C39.4937 78.1272 39.2363 78.2683 38.929 78.3817C38.6218 78.4951 38.2708 78.5785 37.896 78.6271C37.5211 78.6758 37.1299 78.6887 36.7446 78.6653C36.3593 78.6418 35.9874 78.5824 35.6502 78.4904C35.3131 78.3984 35.0172 78.2757 34.7795 78.1291C34.5419 77.9826 34.3671 77.8151 34.2651 77.6364C34.1631 77.4576 34.136 77.271 34.1853 77.0872C34.2345 76.9035 34.3591 76.7262 34.552 76.5654C34.745 76.4046 35.0024 76.2636 35.3096 76.1503C35.6168 76.0369 35.9678 75.9536 36.3425 75.905C36.7172 75.8564 37.1084 75.8435 37.4936 75.8669C38.2715 75.9143 38.9781 76.107 39.4581 76.4028C39.938 76.6987 40.152 77.0733 40.0529 77.4443ZM70.4613 76.7895C70.4613 76.7895 77.0866 76.19 80.8729 75.7481C84.6592 75.3069 84.8481 75.4965 85.4789 78.967C86.1104 82.4375 85.1612 84.0536 82.5137 84.8347C79.3296 85.7745 71.534 87.0756 70.3351 85.4348C69.1356 83.794 68.2524 76.915 70.4613 76.7895Z" fill="white"/>
<path d="M71.8805 79.0297C71.8805 79.0297 84.3121 77.1366 83.0497 78.0518C81.7881 78.9663 73.6161 79.8815 72.0387 80.0077C70.4613 80.1345 70.745 79.3455 71.8805 79.0297ZM72.6695 82.5003C72.6695 82.5003 78.7588 81.4275 77.4972 82.3427C76.2355 83.2579 74.4051 83.352 72.827 83.4789C71.2497 83.605 71.534 82.816 72.6695 82.5003Z" fill="#7738C7"/>
</svg>
